<svg width="24" height="23" viewBox="0 0 24 23" fill="none" xmlns="http://www.w3.org/2000/svg">
<g clip-path="url(#clip0_6_128)">
<path d="M12 1.89612C14.717 1.89612 15.056 1.9056 16.122 1.953C17.187 2.00041 17.912 2.15874 18.55 2.39386C19.21 2.63468 19.766 2.96082 20.322 3.487C20.8305 3.96095 21.224 4.53425 21.475 5.16701C21.722 5.77094 21.89 6.45925 21.94 7.46896C21.987 8.47962 22 8.80102 22 11.377C22 13.9529 21.99 14.2743 21.94 15.285C21.89 16.2947 21.722 16.982 21.475 17.5869C21.2247 18.22 20.8311 18.7935 20.322 19.2669C19.822 19.7489 19.2173 20.1219 18.55 20.3601C17.913 20.5942 17.187 20.7535 16.122 20.8009C15.056 20.8455 14.717 20.8578 12 20.8578C9.283 20.8578 8.944 20.8483 7.878 20.8009C6.813 20.7535 6.088 20.5942 5.45 20.3601C4.78233 20.1225 4.17753 19.7494 3.678 19.2669C3.16941 18.7931 2.77593 18.2197 2.525 17.5869C2.277 16.983 2.11 16.2947 2.06 15.285C2.013 14.2743 2 13.9529 2 11.377C2 8.80102 2.01 8.47962 2.06 7.46896C2.11 6.4583 2.277 5.77189 2.525 5.16701C2.77524 4.53386 3.1688 3.9604 3.678 3.487C4.17767 3.00465 4.78243 2.63158 5.45 2.39386C6.088 2.15874 6.812 2.00041 7.878 1.953C8.944 1.90844 9.283 1.89612 12 1.89612ZM12 6.63654C10.6739 6.63654 9.40215 7.13598 8.46447 8.02498C7.52678 8.91398 7 10.1197 7 11.377C7 12.6342 7.52678 13.8399 8.46447 14.7289C9.40215 15.618 10.6739 16.1174 12 16.1174C13.3261 16.1174 14.5979 15.618 15.5355 14.7289C16.4732 13.8399 17 12.6342 17 11.377C17 10.1197 16.4732 8.91398 15.5355 8.02498C14.5979 7.13598 13.3261 6.63654 12 6.63654ZM18.5 6.39952C18.5 6.08521 18.3683 5.78377 18.1339 5.56152C17.8995 5.33927 17.5815 5.21441 17.25 5.21441C16.9185 5.21441 16.6005 5.33927 16.3661 5.56152C16.1317 5.78377 16 6.08521 16 6.39952C16 6.71383 16.1317 7.01527 16.3661 7.23752C16.6005 7.45977 16.9185 7.58463 17.25 7.58463C17.5815 7.58463 17.8995 7.45977 18.1339 7.23752C18.3683 7.01527 18.5 6.71383 18.5 6.39952ZM12 8.53271C12.7956 8.53271 13.5587 8.83237 14.1213 9.36577C14.6839 9.89917 15 10.6226 15 11.377C15 12.1313 14.6839 12.8548 14.1213 13.3882C13.5587 13.9216 12.7956 14.2212 12 14.2212C11.2044 14.2212 10.4413 13.9216 9.87868 13.3882C9.31607 12.8548 9 12.1313 9 11.377C9 10.6226 9.31607 9.89917 9.87868 9.36577C10.4413 8.83237 11.2044 8.53271 12 8.53271Z" fill="#454444"/>
</g>
<defs>
<clipPath id="clip0_6_128">
<rect width="24" height="22.754" fill="white"/>
</clipPath>
</defs>
</svg>
